<svg width="726" height="364" viewBox="0 0 726 364" fill="none" xmlns="http://www.w3.org/2000/svg">
<path d="M54.8863 245.473V43.8726H131.494C149.158 43.8726 164.23 46.7046 176.71 52.3686C189.19 58.0326 199.366 65.7126 207.238 75.4086C215.11 85.0086 220.87 95.8086 224.518 107.809C228.166 119.809 229.99 132.097 229.99 144.673C229.99 156.097 228.214 167.713 224.662 179.521C221.206 191.329 215.59 202.225 207.814 212.209C200.134 222.193 189.91 230.257 177.142 236.401C164.47 242.449 148.87 245.473 130.342 245.473H54.8863ZM100.39 201.985H134.662C143.398 201.985 150.79 200.305 156.838 196.945C162.982 193.489 167.926 188.929 171.67 183.265C175.51 177.601 178.294 171.409 180.022 164.689C181.846 157.969 182.758 151.297 182.758 144.673C182.758 137.761 181.846 130.897 180.022 124.081C178.294 117.265 175.606 111.073 171.958 105.505C168.31 99.9366 163.654 95.4726 157.99 92.1126C152.326 88.7527 145.606 87.0727 137.83 87.0727H100.39V201.985ZM264.994 245.473V98.3046H308.194V111.841C310.402 107.329 314.338 103.393 320.002 100.033C325.666 96.5767 331.138 94.8487 336.418 94.8487C347.842 94.8487 357.442 99.1687 365.218 107.809L359.458 146.977C355.042 143.041 350.818 140.305 346.786 138.769C342.85 137.137 338.434 136.321 333.538 136.321C328.066 136.321 323.458 137.473 319.714 139.777C315.97 142.081 313.09 145.489 311.074 150.001C309.154 154.513 308.194 160.033 308.194 166.561V245.473H264.994ZM389.032 245.473V98.3046H432.232V245.473H389.032ZM410.632 85.3446C403.912 85.3446 398.104 82.8966 393.208 78.0006C388.312 73.1046 385.864 67.2966 385.864 60.5767C385.864 53.9527 388.264 48.2886 393.064 43.5846C397.864 38.7847 403.72 36.3847 410.632 36.3847C417.736 36.3847 423.64 38.7366 428.344 43.4406C433.048 48.0486 435.4 53.7607 435.4 60.5767C435.4 67.4887 433 73.3447 428.2 78.1446C423.4 82.9446 417.544 85.3446 410.632 85.3446ZM483.426 245.473V136.321H464.13V98.3046H483.426V76.7046C483.426 64.6086 486.642 55.5366 493.074 49.4886C499.506 43.4407 509.058 40.4167 521.73 40.4167C529.218 40.4167 535.746 41.0407 541.314 42.2887C546.882 43.4407 552.162 45.3126 557.154 47.9046V82.7527C553.314 81.3126 549.522 80.1606 545.778 79.2966C542.13 78.3367 538.914 77.8567 536.13 77.8567C533.154 77.8567 530.802 78.5286 529.074 79.8726C527.442 81.2166 526.626 83.1367 526.626 85.6327V98.3046H557.154V136.321H526.626V245.473H483.426ZM639.526 248.929C626.758 248.929 617.254 245.569 611.014 238.849C604.87 232.129 601.798 221.953 601.798 208.321V136.321H581.926V98.3046H601.798V57.9846L644.71 37.5366V98.3046H676.102V136.321H644.71V203.137C644.71 206.017 645.43 208.225 646.87 209.761C648.406 211.297 650.71 212.065 653.782 212.065C661.174 212.065 669.286 210.145 678.118 206.305L673.222 242.305C668.614 244.417 663.526 246.049 657.958 247.201C652.486 248.353 646.342 248.929 639.526 248.929Z" fill="black"/>
<path d="M634 351.109L713.373 307" stroke="black" stroke-width="24" stroke-linecap="round"/>
<path d="M12.7998 306.473H713.6" stroke="black" stroke-width="24" stroke-linecap="round"/>
</svg>
